# xmcd
#
# Track frame offsets:
#	150
#	21596
#	35462
#	59870
#
# Disc length: 1082 seconds
#
# Revision: 1
# Processed by: cddbd v1.5.1PL0 Copyright (c) Steve Scherf et al.
# Submitted via: CDex 1.50Beta5
#
DISCID=38043804
DTITLE=玉置成実 - Realize
DYEAR=1900
DGENRE=Pop
TTITLE0=Realize
TTITLE1=Hot summer day
TTITLE2=明日の君
TTITLE3=Realize -Instrumental-
EXTD=
EXTT0=
EXTT1=
EXTT2=
EXTT3=
PLAYORDER=
